<svg xmlns="http://www.w3.org/2000/svg" xmlns:xlink="http://www.w3.org/1999/xlink" style="enable-background:new 0 0 40 40" id="Слой_1" width="16" height="16" x="0" y="0" version="1.1" viewBox="0 0 40 40" xml:space="preserve"><title>Branding_2</title><g><path style="fill:#fff" d="M37.5,5.5H21v29.12h16.5c0.552,0,1-0.448,1-1V6.5C38.5,5.948,38.052,5.5,37.5,5.5z"/></g><g><polygon style="fill:#b7dbba" points="23.5 38 1.5 34 1.5 6 23.5 2"/></g><g><path style="fill:#fff" d="M15.13,27l-2.41-4.56c-0.134-0.3-0.232-0.616-0.29-0.94l0,0c-0.088,0.34-0.198,0.674-0.33,1L9.65,27 H5.9l4.46-7l-4.09-7h3.84l2,4.2c0.178,0.379,0.319,0.774,0.42,1.18l0,0c0.08-0.28,0.23-0.69,0.44-1.22L15.24,13h3.51l-4.2,6.94 L18.87,27H15.13z"/></g><g><path style="fill:#e0e9f0" d="M36,15h-8v-4h8V15z M29,14h6v-2h-6V14z"/></g><g><polygon style="fill:#e0e9f0" points="27 15 23.63 15 23.63 14 26 14 26 12 23.63 12 23.63 11 27 11"/></g><g><path style="fill:#e0e9f0" d="M36,20h-8v-4h8V20z M29,19h6v-2h-6V19z"/></g><g><path style="fill:#e0e9f0" d="M36,25h-8v-4h8V25z M29,24h6v-2h-6V24z"/></g><g><path style="fill:#e0e9f0" d="M36,30h-8v-4h8V30z M29,29h6v-2h-6V29z"/></g><g><polygon style="fill:#e0e9f0" points="27 20 23.63 20 23.63 19 26 19 26 17 23.63 17 23.63 16 27 16"/></g><g><polygon style="fill:#e0e9f0" points="27 25 23.63 25 23.63 24 26 24 26 22 23.63 22 23.63 21 27 21"/></g><g><polygon style="fill:#e0e9f0" points="27 30 23.63 30 23.63 29 26 29 26 27 23.63 27 23.63 26 27 26"/></g><g><path style="fill:#5d9874" d="M18.83,28h-3.7c-0.193,0-0.369-0.111-0.452-0.285l-2.255-4.736l-2.292,4.739 C10.047,27.891,9.872,28,9.68,28H5.9c-0.18,0-0.346-0.097-0.435-0.253s-0.087-0.348,0.005-0.503l4.314-7.255l-3.954-7.25 c-0.084-0.155-0.081-0.343,0.009-0.495C5.93,12.093,6.094,12,6.27,12h3.84c0.201,0,0.381,0.12,0.46,0.304l1.963,4.614l2.216-4.634 C14.832,12.11,15.008,12,15.2,12h3.51c0.178,0,0.342,0.094,0.432,0.248c0.09,0.153,0.091,0.343,0.004,0.498l-4.061,7.193 l4.179,7.313c0.088,0.154,0.088,0.345-0.001,0.499C19.173,27.905,19.008,28,18.83,28z M15.446,27h2.522l-3.893-6.812 c-0.087-0.153-0.088-0.341-0.001-0.494L17.854,13h-2.338l-2.094,4.376c-0.189,0.478-0.334,0.873-0.411,1.142 c-0.062,0.218-0.261,0.36-0.489,0.362c-0.226-0.004-0.422-0.16-0.477-0.379c-0.093-0.375-0.223-0.74-0.387-1.088L9.779,13H7.112 l3.687,6.761c0.084,0.155,0.081,0.343-0.009,0.495L6.779,27h2.588l2.283-4.718c0.109-0.272,0.214-0.588,0.296-0.907 c0.059-0.229,0.258-0.373,0.503-0.375c0.235,0.009,0.432,0.181,0.473,0.412c0.051,0.282,0.135,0.558,0.252,0.818L15.446,27z"/></g><g><path style="fill:#5d9874" d="M37.5,35H23.38v-1H37.5c0.275,0,0.5-0.225,0.5-0.5v-27C38,6.224,37.775,6,37.5,6H23V5h14.5 C38.327,5,39,5.673,39,6.5v27C39,34.327,38.327,35,37.5,35z"/></g><g><path style="fill:#5d9874" d="M24,38.599L1,34.417V5.583l23-4.182V38.599z M2,33.583l21,3.818V2.599L2,6.417V33.583z"/></g></svg>